<?xml version="1.0" encoding="UTF-8" standalone="no"?>
<svg xmlns:svg="http://www.w3.org/2000/svg"
     xmlns:xlink="http://www.w3.org/1999/xlink"
     xmlns="http://www.w3.org/2000/svg"
     version="1.0"
     width="100%"
     height="100%"
     viewBox="0 0 6 4">
  <defs>
    <style type="text/css">
      <![CDATA[
        .dark { fill: #404040 }
        .medium { fill: #808080 }
        .light { fill: #c0c0c0 }
        .link:hover .medium { fill: #c0c0c0 }
        .link:hover .light { fill: #808080 }
      ]]>
    </style>
    <path id="j" d="M 4,0 L 4,4 0,4 0,6 6,6 6,0 Z" />
    <path id="t" d="M 4,0 L 6,0 6,4 10,4 10,6 6,6 6,10 4,10 4,6 0,6 0,4 4,4 Z" />
    <path id="A" d="M 0,4 L 0,0 3,0 3,4 2,4 2,3 1,3 1,2 2,2 2,1 1,1 1,4 Z" />
    <path id="C" d="M 0,0 L 0,4 3,4 3,3 1,3 1,1 3,1 3,0 Z" />
    <path id="E" d="M 0,4 L 0,0 3,0 3,2 2,2 2,1 1,1 1,3 3,3 3,4 Z" />
    <path id="G" d="M 0,4 L 0,0 3,0 3,1 1,1 1,3 2,3 2,2 3,2 3,4 Z" />
    <path id="I" d="M 0,4 L 0,0 1,0 1,4 Z" />
    <path id="L" d="M 0,4 L 0,0 1,0 1,3 3,3 3,4 Z" />
    <path id="N" d="M 0,4 L 0,0 3,0 3,4 2,4 2,1 1,1 1,4 Z" />
    <path id="T" d="M 1,4 L 1,1 0,1 0,0 3,0 3,1 2,1 2,4 Z" />
    <path id="V" d="M 0,3 L 0,0 1,0 1,3 2,3 2,0 3,0 3,3 2,3 2,4 1,4 1,3 Z" />
  </defs>
  <g id="CV" class="link">
    <a xlink:type="simple" xlink:href="/cv/cv.xml" xlink:show="new">
      <use xlink:href="#C" class="medium" />
      <use xlink:href="#V" class="light" transform="translate(3,0)" />
    </a>
  </g>
</svg>

